<svg xmlns:x="&amp;ns_extend;" xmlns:i="&amp;ns_ai;" xmlns:graph="&amp;ns_graphs;" xmlns="http://www.w3.org/2000/svg" xmlns:xlink="http://www.w3.org/1999/xlink" version="1.1" id="Layer_1" x="0px" y="0px" viewBox="0 0 193 315" style="enable-background:new 0 0 193 315;" xml:space="preserve">
      <style type="text/css">.st0{fill:url(#SVGID_1_);}	.st1{fill:url(#SVGID_00000049209776844267095540000004465528713943323297_);}	.st2{opacity:0.25;fill:url(#SVGID_00000060008737442431534850000015249177255129360269_);enable-background:new    ;}	.st3{opacity:0.25;fill:url(#SVGID_00000026874041283443325420000012654994762352423332_);enable-background:new    ;}</style>
    <metadata>
              <sfw>
                      <slices/>
            <sliceSourceBounds bottomLeftOrigin="true" height="315" width="193" x="0" y="0"/>
                  </sfw>
          </metadata>
    <g id="color_index_g">
              <linearGradient id="SVGID_1_" gradientUnits="userSpaceOnUse" x1="325.1213" y1="206.4102" x2="-112.6506" y2="134.5506" gradientTransform="matrix(1 0 0 -1 0 316)">
                      <stop offset="0.1013" style="stop-color:#6cdcff"/>
            <stop offset="0.6885" style="stop-color:#4a4fff"/>
                  </linearGradient>
        <linearGradient id="SVGID_00000048473593837883886640000014548410360651633822_" gradientUnits="userSpaceOnUse" x1="143.1747" y1="325.2296" x2="-61.4325" y2="14.8893" gradientTransform="matrix(1 0 0 -1 0 316)">
                      <stop offset="0.1013" style="stop-color:#6cdcff"/>
            <stop offset="0.6885" style="stop-color:#4a4fff"/>
                  </linearGradient>
        <path class="st0" d="M126.9,4.9C117.3,1.7,106.8,0,96.5,0H33.2C14.9,0,0,14.9,0,33.2v248.5C0,300.1,14.9,315,33.2,315&#9;&#9;s33.2-14.9,33.2-33.2V193h30c22.2,0.1,44-7.8,60.9-21.6C179.8,153.1,193,126,193,96.5C193,53.8,165.3,17.6,126.9,4.9z M118.7,116.7&#9;&#9;c-5.6,6.2-13.8,9.8-22.2,9.8h-30v-60h30c16.6,0,30,13.4,30,30C126.5,104.3,123.6,111.4,118.7,116.7z"/>
        <path style="fill:url(#SVGID_00000048473593837883886640000014548410360651633822_);" d="M106.6,0.5c-23.8,12.4-40.1,37.3-40.1,66&#9;&#9;v215.2c0,18.4-14.9,33.2-33.2,33.2S0,300.1,0,281.8V33.2C0,14.9,14.9,0,33.2,0h63.3C99.9,0,103.2,0.2,106.6,0.5z"/>
          </g>
    <g>
              <linearGradient id="SVGID_00000183969927305382837690000006832686985427013798_" gradientUnits="userSpaceOnUse" x1="10252.1768" y1="2574.4961" x2="10212.8066" y2="2514.7808" gradientTransform="matrix(-1 0 0 1 10298.4736 -2378.8125)">
                      <stop offset="0.324" style="stop-color:#000000"/>
            <stop offset="0.8222" style="stop-color:#000000;stop-opacity:0"/>
                  </linearGradient>
        <linearGradient id="SVGID_00000089559361886191297160000008716671487680697257_" gradientUnits="userSpaceOnUse" x1="126.5907" y1="328.5166" x2="64.1932" y2="256.7545" gradientTransform="matrix(1 0 0 -1 0 316)">
                      <stop offset="0.324" style="stop-color:#000000"/>
            <stop offset="0.8222" style="stop-color:#000000;stop-opacity:0"/>
                  </linearGradient>
        <rect x="66.5" y="126.5" style="opacity:0.25;fill:url(#SVGID_00000183969927305382837690000006832686985427013798_);enable-background:new    ;" width="6.9" height="66.5"/>
        <path style="opacity:0.25;fill:url(#SVGID_00000089559361886191297160000008716671487680697257_);enable-background:new    ;" d="&#9;&#9;M110.5,1C87.2,13.6,73.4,38.2,73.4,66.5h-6.9c0-28.7,16.3-53.6,40.1-66h0C107.9,0.6,109.2,0.8,110.5,1z"/>
          </g>
  </svg>